<?xml version="1.0" encoding="utf-8" standalone="no"?>
<!DOCTYPE svg PUBLIC "-//W3C//DTD SVG 1.1//EN"
  "http://www.w3.org/Graphics/SVG/1.1/DTD/svg11.dtd">
<svg xmlns:xlink="http://www.w3.org/1999/xlink" width="1152pt" height="864pt" viewBox="0 0 1152 864" xmlns="http://www.w3.org/2000/svg" version="1.1">
 <metadata>
  <rdf:RDF xmlns:dc="http://purl.org/dc/elements/1.1/" xmlns:cc="http://creativecommons.org/ns#" xmlns:rdf="http://www.w3.org/1999/02/22-rdf-syntax-ns#">
   <cc:Work>
    <dc:type rdf:resource="http://purl.org/dc/dcmitype/StillImage"/>
    <dc:date>2026-01-13T03:42:20.729410</dc:date>
    <dc:format>image/svg+xml</dc:format>
    <dc:creator>
     <cc:Agent>
      <dc:title>Matplotlib v3.10.8, https://matplotlib.org/</dc:title>
     </cc:Agent>
    </dc:creator>
   </cc:Work>
  </rdf:RDF>
 </metadata>
 <defs>
  <style type="text/css">*{stroke-linejoin: round; stroke-linecap: butt}</style>
 </defs>
 <g id="figure_1">
  <g id="patch_1">
   <path d="M 0 864 
L 1152 864 
L 1152 0 
L 0 0 
z
" style="fill: #ffffff"/>
  </g>
  <g id="axes_1">
   <g id="patch_2">
    <path d="M 88.4 790.36 
L 1130.4 790.36 
L 1130.4 68.92 
L 88.4 68.92 
z
" style="fill: #ffffff"/>
   </g>
   <g id="matplotlib.axis_1">
    <g id="xtick_1">
     <g id="line2d_1">
      <path d="M 198.735443 790.36 
L 198.735443 68.92 
" clip-path="url(#p3bf65cb81d)" style="fill: none; stroke: #cccccc; stroke-width: 0.8; stroke-linecap: round"/>
     </g>
     <g id="text_1">
      <!-- 0 -->
      <g style="fill: #262626" transform="translate(193.174506 811.675625) scale(0.2 -0.2)">
       <defs>
        <path id="ArialMT-30" d="M 266 2259 
Q 266 3072 433 3567 
Q 600 4063 929 4331 
Q 1259 4600 1759 4600 
Q 2128 4600 2406 4451 
Q 2684 4303 2865 4023 
Q 3047 3744 3150 3342 
Q 3253 2941 3253 2259 
Q 3253 1453 3087 958 
Q 2922 463 2592 192 
Q 2263 -78 1759 -78 
Q 1097 -78 719 397 
Q 266 969 266 2259 
z
M 844 2259 
Q 844 1131 1108 757 
Q 1372 384 1759 384 
Q 2147 384 2411 759 
Q 2675 1134 2675 2259 
Q 2675 3391 2411 3762 
Q 2147 4134 1753 4134 
Q 1366 4134 1134 3806 
Q 844 3388 844 2259 
z
" transform="scale(0.015625)"/>
       </defs>
       <use xlink:href="#ArialMT-30"/>
      </g>
     </g>
    </g>
    <g id="xtick_2">
     <g id="line2d_2">
      <path d="M 357.238285 790.36 
L 357.238285 68.92 
" clip-path="url(#p3bf65cb81d)" style="fill: none; stroke: #cccccc; stroke-width: 0.8; stroke-linecap: round"/>
     </g>
     <g id="text_2">
      <!-- 5 -->
      <g style="fill: #262626" transform="translate(351.677347 811.675625) scale(0.2 -0.2)">
       <defs>
        <path id="ArialMT-35" d="M 266 1200 
L 856 1250 
Q 922 819 1161 601 
Q 1400 384 1738 384 
Q 2144 384 2425 690 
Q 2706 997 2706 1503 
Q 2706 1984 2436 2262 
Q 2166 2541 1728 2541 
Q 1456 2541 1237 2417 
Q 1019 2294 894 2097 
L 366 2166 
L 809 4519 
L 3088 4519 
L 3088 3981 
L 1259 3981 
L 1013 2750 
Q 1425 3038 1878 3038 
Q 2478 3038 2890 2622 
Q 3303 2206 3303 1553 
Q 3303 931 2941 478 
Q 2500 -78 1738 -78 
Q 1113 -78 717 272 
Q 322 622 266 1200 
z
" transform="scale(0.015625)"/>
       </defs>
       <use xlink:href="#ArialMT-35"/>
      </g>
     </g>
    </g>
    <g id="xtick_3">
     <g id="line2d_3">
      <path d="M 515.741126 790.36 
L 515.741126 68.92 
" clip-path="url(#p3bf65cb81d)" style="fill: none; stroke: #cccccc; stroke-width: 0.8; stroke-linecap: round"/>
     </g>
     <g id="text_3">
      <!-- 10 -->
      <g style="fill: #262626" transform="translate(504.619251 811.675625) scale(0.2 -0.2)">
       <defs>
        <path id="ArialMT-31" d="M 2384 0 
L 1822 0 
L 1822 3584 
Q 1619 3391 1289 3197 
Q 959 3003 697 2906 
L 697 3450 
Q 1169 3672 1522 3987 
Q 1875 4303 2022 4600 
L 2384 4600 
L 2384 0 
z
" transform="scale(0.015625)"/>
       </defs>
       <use xlink:href="#ArialMT-31"/>
       <use xlink:href="#ArialMT-30" transform="translate(55.615234 0)"/>
      </g>
     </g>
    </g>
    <g id="xtick_4">
     <g id="line2d_4">
      <path d="M 674.243968 790.36 
L 674.243968 68.92 
" clip-path="url(#p3bf65cb81d)" style="fill: none; stroke: #cccccc; stroke-width: 0.8; stroke-linecap: round"/>
     </g>
     <g id="text_4">
      <!-- 15 -->
      <g style="fill: #262626" transform="translate(663.122093 811.675625) scale(0.2 -0.2)">
       <use xlink:href="#ArialMT-31"/>
       <use xlink:href="#ArialMT-35" transform="translate(55.615234 0)"/>
      </g>
     </g>
    </g>
    <g id="xtick_5">
     <g id="line2d_5">
      <path d="M 832.74681 790.36 
L 832.74681 68.92 
" clip-path="url(#p3bf65cb81d)" style="fill: none; stroke: #cccccc; stroke-width: 0.8; stroke-linecap: round"/>
     </g>
     <g id="text_5">
      <!-- 20 -->
      <g style="fill: #262626" transform="translate(821.624935 811.675625) scale(0.2 -0.2)">
       <defs>
        <path id="ArialMT-32" d="M 3222 541 
L 3222 0 
L 194 0 
Q 188 203 259 391 
Q 375 700 629 1000 
Q 884 1300 1366 1694 
Q 2113 2306 2375 2664 
Q 2638 3022 2638 3341 
Q 2638 3675 2398 3904 
Q 2159 4134 1775 4134 
Q 1369 4134 1125 3890 
Q 881 3647 878 3216 
L 300 3275 
Q 359 3922 746 4261 
Q 1134 4600 1788 4600 
Q 2447 4600 2831 4234 
Q 3216 3869 3216 3328 
Q 3216 3053 3103 2787 
Q 2991 2522 2730 2228 
Q 2469 1934 1863 1422 
Q 1356 997 1212 845 
Q 1069 694 975 541 
L 3222 541 
z
" transform="scale(0.015625)"/>
       </defs>
       <use xlink:href="#ArialMT-32"/>
       <use xlink:href="#ArialMT-30" transform="translate(55.615234 0)"/>
      </g>
     </g>
    </g>
    <g id="xtick_6">
     <g id="line2d_6">
      <path d="M 991.249651 790.36 
L 991.249651 68.92 
" clip-path="url(#p3bf65cb81d)" style="fill: none; stroke: #cccccc; stroke-width: 0.8; stroke-linecap: round"/>
     </g>
     <g id="text_6">
      <!-- 25 -->
      <g style="fill: #262626" transform="translate(980.127776 811.675625) scale(0.2 -0.2)">
       <use xlink:href="#ArialMT-32"/>
       <use xlink:href="#ArialMT-35" transform="translate(55.615234 0)"/>
      </g>
     </g>
    </g>
    <g id="text_7">
     <!-- XIRR (%) -->
     <g style="fill: #262626" transform="translate(558.73375 837.121875) scale(0.24 -0.24)">
      <defs>
       <path id="ArialMT-58" d="M 28 0 
L 1800 2388 
L 238 4581 
L 959 4581 
L 1791 3406 
Q 2050 3041 2159 2844 
Q 2313 3094 2522 3366 
L 3444 4581 
L 4103 4581 
L 2494 2422 
L 4228 0 
L 3478 0 
L 2325 1634 
Q 2228 1775 2125 1941 
Q 1972 1691 1906 1597 
L 756 0 
L 28 0 
z
" transform="scale(0.015625)"/>
       <path id="ArialMT-49" d="M 597 0 
L 597 4581 
L 1203 4581 
L 1203 0 
L 597 0 
z
" transform="scale(0.015625)"/>
       <path id="ArialMT-52" d="M 503 0 
L 503 4581 
L 2534 4581 
Q 3147 4581 3465 4457 
Q 3784 4334 3975 4021 
Q 4166 3709 4166 3331 
Q 4166 2844 3850 2509 
Q 3534 2175 2875 2084 
Q 3116 1969 3241 1856 
Q 3506 1613 3744 1247 
L 4541 0 
L 3778 0 
L 3172 953 
Q 2906 1366 2734 1584 
Q 2563 1803 2427 1890 
Q 2291 1978 2150 2013 
Q 2047 2034 1813 2034 
L 1109 2034 
L 1109 0 
L 503 0 
z
M 1109 2559 
L 2413 2559 
Q 2828 2559 3062 2645 
Q 3297 2731 3419 2920 
Q 3541 3109 3541 3331 
Q 3541 3656 3305 3865 
Q 3069 4075 2559 4075 
L 1109 4075 
L 1109 2559 
z
" transform="scale(0.015625)"/>
       <path id="ArialMT-20" transform="scale(0.015625)"/>
       <path id="ArialMT-28" d="M 1497 -1347 
Q 1031 -759 709 28 
Q 388 816 388 1659 
Q 388 2403 628 3084 
Q 909 3875 1497 4659 
L 1900 4659 
Q 1522 4009 1400 3731 
Q 1209 3300 1100 2831 
Q 966 2247 966 1656 
Q 966 153 1900 -1347 
L 1497 -1347 
z
" transform="scale(0.015625)"/>
       <path id="ArialMT-25" d="M 372 3481 
Q 372 3972 619 4315 
Q 866 4659 1334 4659 
Q 1766 4659 2048 4351 
Q 2331 4044 2331 3447 
Q 2331 2866 2045 2552 
Q 1759 2238 1341 2238 
Q 925 2238 648 2547 
Q 372 2856 372 3481 
z
M 1350 4272 
Q 1141 4272 1002 4090 
Q 863 3909 863 3425 
Q 863 2984 1003 2804 
Q 1144 2625 1350 2625 
Q 1563 2625 1702 2806 
Q 1841 2988 1841 3469 
Q 1841 3913 1700 4092 
Q 1559 4272 1350 4272 
z
M 1353 -169 
L 3859 4659 
L 4316 4659 
L 1819 -169 
L 1353 -169 
z
M 3334 1075 
Q 3334 1569 3581 1911 
Q 3828 2253 4300 2253 
Q 4731 2253 5014 1945 
Q 5297 1638 5297 1041 
Q 5297 459 5011 145 
Q 4725 -169 4303 -169 
Q 3888 -169 3611 142 
Q 3334 453 3334 1075 
z
M 4316 1866 
Q 4103 1866 3964 1684 
Q 3825 1503 3825 1019 
Q 3825 581 3965 400 
Q 4106 219 4313 219 
Q 4528 219 4667 400 
Q 4806 581 4806 1063 
Q 4806 1506 4665 1686 
Q 4525 1866 4316 1866 
z
" transform="scale(0.015625)"/>
       <path id="ArialMT-29" d="M 791 -1347 
L 388 -1347 
Q 1322 153 1322 1656 
Q 1322 2244 1188 2822 
Q 1081 3291 891 3722 
Q 769 4003 388 4659 
L 791 4659 
Q 1378 3875 1659 3084 
Q 1900 2403 1900 1659 
Q 1900 816 1576 28 
Q 1253 -759 791 -1347 
z
" transform="scale(0.015625)"/>
      </defs>
      <use xlink:href="#ArialMT-58"/>
      <use xlink:href="#ArialMT-49" transform="translate(66.699219 0)"/>
      <use xlink:href="#ArialMT-52" transform="translate(94.482422 0)"/>
      <use xlink:href="#ArialMT-52" transform="translate(166.699219 0)"/>
      <use xlink:href="#ArialMT-20" transform="translate(238.916016 0)"/>
      <use xlink:href="#ArialMT-28" transform="translate(266.699219 0)"/>
      <use xlink:href="#ArialMT-25" transform="translate(300 0)"/>
      <use xlink:href="#ArialMT-29" transform="translate(388.916016 0)"/>
     </g>
    </g>
   </g>
   <g id="matplotlib.axis_2">
    <g id="ytick_1">
     <g id="line2d_7">
      <path d="M 88.4 790.36 
L 1130.4 790.36 
" clip-path="url(#p3bf65cb81d)" style="fill: none; stroke: #cccccc; stroke-width: 0.8; stroke-linecap: round"/>
     </g>
     <g id="text_8">
      <!-- 0 -->
      <g style="fill: #262626" transform="translate(70.278125 797.517812) scale(0.2 -0.2)">
       <use xlink:href="#ArialMT-30"/>
      </g>
     </g>
    </g>
    <g id="ytick_2">
     <g id="line2d_8">
      <path d="M 88.4 689.019924 
L 1130.4 689.019924 
" clip-path="url(#p3bf65cb81d)" style="fill: none; stroke: #cccccc; stroke-width: 0.8; stroke-linecap: round"/>
     </g>
     <g id="text_9">
      <!-- 50 -->
      <g style="fill: #262626" transform="translate(59.15625 696.177737) scale(0.2 -0.2)">
       <use xlink:href="#ArialMT-35"/>
       <use xlink:href="#ArialMT-30" transform="translate(55.615234 0)"/>
      </g>
     </g>
    </g>
    <g id="ytick_3">
     <g id="line2d_9">
      <path d="M 88.4 587.679848 
L 1130.4 587.679848 
" clip-path="url(#p3bf65cb81d)" style="fill: none; stroke: #cccccc; stroke-width: 0.8; stroke-linecap: round"/>
     </g>
     <g id="text_10">
      <!-- 100 -->
      <g style="fill: #262626" transform="translate(48.034375 594.837661) scale(0.2 -0.2)">
       <use xlink:href="#ArialMT-31"/>
       <use xlink:href="#ArialMT-30" transform="translate(55.615234 0)"/>
       <use xlink:href="#ArialMT-30" transform="translate(111.230469 0)"/>
      </g>
     </g>
    </g>
    <g id="ytick_4">
     <g id="line2d_10">
      <path d="M 88.4 486.339772 
L 1130.4 486.339772 
" clip-path="url(#p3bf65cb81d)" style="fill: none; stroke: #cccccc; stroke-width: 0.8; stroke-linecap: round"/>
     </g>
     <g id="text_11">
      <!-- 150 -->
      <g style="fill: #262626" transform="translate(48.034375 493.497585) scale(0.2 -0.2)">
       <use xlink:href="#ArialMT-31"/>
       <use xlink:href="#ArialMT-35" transform="translate(55.615234 0)"/>
       <use xlink:href="#ArialMT-30" transform="translate(111.230469 0)"/>
      </g>
     </g>
    </g>
    <g id="ytick_5">
     <g id="line2d_11">
      <path d="M 88.4 384.999697 
L 1130.4 384.999697 
" clip-path="url(#p3bf65cb81d)" style="fill: none; stroke: #cccccc; stroke-width: 0.8; stroke-linecap: round"/>
     </g>
     <g id="text_12">
      <!-- 200 -->
      <g style="fill: #262626" transform="translate(48.034375 392.157509) scale(0.2 -0.2)">
       <use xlink:href="#ArialMT-32"/>
       <use xlink:href="#ArialMT-30" transform="translate(55.615234 0)"/>
       <use xlink:href="#ArialMT-30" transform="translate(111.230469 0)"/>
      </g>
     </g>
    </g>
    <g id="ytick_6">
     <g id="line2d_12">
      <path d="M 88.4 283.659621 
L 1130.4 283.659621 
" clip-path="url(#p3bf65cb81d)" style="fill: none; stroke: #cccccc; stroke-width: 0.8; stroke-linecap: round"/>
     </g>
     <g id="text_13">
      <!-- 250 -->
      <g style="fill: #262626" transform="translate(48.034375 290.817433) scale(0.2 -0.2)">
       <use xlink:href="#ArialMT-32"/>
       <use xlink:href="#ArialMT-35" transform="translate(55.615234 0)"/>
       <use xlink:href="#ArialMT-30" transform="translate(111.230469 0)"/>
      </g>
     </g>
    </g>
    <g id="ytick_7">
     <g id="line2d_13">
      <path d="M 88.4 182.319545 
L 1130.4 182.319545 
" clip-path="url(#p3bf65cb81d)" style="fill: none; stroke: #cccccc; stroke-width: 0.8; stroke-linecap: round"/>
     </g>
     <g id="text_14">
      <!-- 300 -->
      <g style="fill: #262626" transform="translate(48.034375 189.477357) scale(0.2 -0.2)">
       <defs>
        <path id="ArialMT-33" d="M 269 1209 
L 831 1284 
Q 928 806 1161 595 
Q 1394 384 1728 384 
Q 2125 384 2398 659 
Q 2672 934 2672 1341 
Q 2672 1728 2419 1979 
Q 2166 2231 1775 2231 
Q 1616 2231 1378 2169 
L 1441 2663 
Q 1497 2656 1531 2656 
Q 1891 2656 2178 2843 
Q 2466 3031 2466 3422 
Q 2466 3731 2256 3934 
Q 2047 4138 1716 4138 
Q 1388 4138 1169 3931 
Q 950 3725 888 3313 
L 325 3413 
Q 428 3978 793 4289 
Q 1159 4600 1703 4600 
Q 2078 4600 2393 4439 
Q 2709 4278 2876 4000 
Q 3044 3722 3044 3409 
Q 3044 3113 2884 2869 
Q 2725 2625 2413 2481 
Q 2819 2388 3044 2092 
Q 3269 1797 3269 1353 
Q 3269 753 2831 336 
Q 2394 -81 1725 -81 
Q 1122 -81 723 278 
Q 325 638 269 1209 
z
" transform="scale(0.015625)"/>
       </defs>
       <use xlink:href="#ArialMT-33"/>
       <use xlink:href="#ArialMT-30" transform="translate(55.615234 0)"/>
       <use xlink:href="#ArialMT-30" transform="translate(111.230469 0)"/>
      </g>
     </g>
    </g>
    <g id="ytick_8">
     <g id="line2d_14">
      <path d="M 88.4 80.979469 
L 1130.4 80.979469 
" clip-path="url(#p3bf65cb81d)" style="fill: none; stroke: #cccccc; stroke-width: 0.8; stroke-linecap: round"/>
     </g>
     <g id="text_15">
      <!-- 350 -->
      <g style="fill: #262626" transform="translate(48.034375 88.137282) scale(0.2 -0.2)">
       <use xlink:href="#ArialMT-33"/>
       <use xlink:href="#ArialMT-35" transform="translate(55.615234 0)"/>
       <use xlink:href="#ArialMT-30" transform="translate(111.230469 0)"/>
      </g>
     </g>
    </g>
    <g id="text_16">
     <!-- Frequency -->
     <g style="fill: #262626" transform="translate(38.983125 486.330625) rotate(-90) scale(0.24 -0.24)">
      <defs>
       <path id="ArialMT-46" d="M 525 0 
L 525 4581 
L 3616 4581 
L 3616 4041 
L 1131 4041 
L 1131 2622 
L 3281 2622 
L 3281 2081 
L 1131 2081 
L 1131 0 
L 525 0 
z
" transform="scale(0.015625)"/>
       <path id="ArialMT-72" d="M 416 0 
L 416 3319 
L 922 3319 
L 922 2816 
Q 1116 3169 1280 3281 
Q 1444 3394 1641 3394 
Q 1925 3394 2219 3213 
L 2025 2691 
Q 1819 2813 1613 2813 
Q 1428 2813 1281 2702 
Q 1134 2591 1072 2394 
Q 978 2094 978 1738 
L 978 0 
L 416 0 
z
" transform="scale(0.015625)"/>
       <path id="ArialMT-65" d="M 2694 1069 
L 3275 997 
Q 3138 488 2766 206 
Q 2394 -75 1816 -75 
Q 1088 -75 661 373 
Q 234 822 234 1631 
Q 234 2469 665 2931 
Q 1097 3394 1784 3394 
Q 2450 3394 2872 2941 
Q 3294 2488 3294 1666 
Q 3294 1616 3291 1516 
L 816 1516 
Q 847 969 1125 678 
Q 1403 388 1819 388 
Q 2128 388 2347 550 
Q 2566 713 2694 1069 
z
M 847 1978 
L 2700 1978 
Q 2663 2397 2488 2606 
Q 2219 2931 1791 2931 
Q 1403 2931 1139 2672 
Q 875 2413 847 1978 
z
" transform="scale(0.015625)"/>
       <path id="ArialMT-71" d="M 2538 -1272 
L 2538 353 
Q 2406 169 2170 47 
Q 1934 -75 1669 -75 
Q 1078 -75 651 397 
Q 225 869 225 1691 
Q 225 2191 398 2587 
Q 572 2984 901 3189 
Q 1231 3394 1625 3394 
Q 2241 3394 2594 2875 
L 2594 3319 
L 3100 3319 
L 3100 -1272 
L 2538 -1272 
z
M 803 1669 
Q 803 1028 1072 708 
Q 1341 388 1716 388 
Q 2075 388 2334 692 
Q 2594 997 2594 1619 
Q 2594 2281 2320 2615 
Q 2047 2950 1678 2950 
Q 1313 2950 1058 2639 
Q 803 2328 803 1669 
z
" transform="scale(0.015625)"/>
       <path id="ArialMT-75" d="M 2597 0 
L 2597 488 
Q 2209 -75 1544 -75 
Q 1250 -75 995 37 
Q 741 150 617 320 
Q 494 491 444 738 
Q 409 903 409 1263 
L 409 3319 
L 972 3319 
L 972 1478 
Q 972 1038 1006 884 
Q 1059 663 1231 536 
Q 1403 409 1656 409 
Q 1909 409 2131 539 
Q 2353 669 2445 892 
Q 2538 1116 2538 1541 
L 2538 3319 
L 3100 3319 
L 3100 0 
L 2597 0 
z
" transform="scale(0.015625)"/>
       <path id="ArialMT-6e" d="M 422 0 
L 422 3319 
L 928 3319 
L 928 2847 
Q 1294 3394 1984 3394 
Q 2284 3394 2536 3286 
Q 2788 3178 2913 3003 
Q 3038 2828 3088 2588 
Q 3119 2431 3119 2041 
L 3119 0 
L 2556 0 
L 2556 2019 
Q 2556 2363 2490 2533 
Q 2425 2703 2258 2804 
Q 2091 2906 1866 2906 
Q 1506 2906 1245 2678 
Q 984 2450 984 1813 
L 984 0 
L 422 0 
z
" transform="scale(0.015625)"/>
       <path id="ArialMT-63" d="M 2588 1216 
L 3141 1144 
Q 3050 572 2676 248 
Q 2303 -75 1759 -75 
Q 1078 -75 664 370 
Q 250 816 250 1647 
Q 250 2184 428 2587 
Q 606 2991 970 3192 
Q 1334 3394 1763 3394 
Q 2303 3394 2647 3120 
Q 2991 2847 3088 2344 
L 2541 2259 
Q 2463 2594 2264 2762 
Q 2066 2931 1784 2931 
Q 1359 2931 1093 2626 
Q 828 2322 828 1663 
Q 828 994 1084 691 
Q 1341 388 1753 388 
Q 2084 388 2306 591 
Q 2528 794 2588 1216 
z
" transform="scale(0.015625)"/>
       <path id="ArialMT-79" d="M 397 -1278 
L 334 -750 
Q 519 -800 656 -800 
Q 844 -800 956 -737 
Q 1069 -675 1141 -563 
Q 1194 -478 1313 -144 
Q 1328 -97 1363 -6 
L 103 3319 
L 709 3319 
L 1400 1397 
Q 1534 1031 1641 628 
Q 1738 1016 1872 1384 
L 2581 3319 
L 3144 3319 
L 1881 -56 
Q 1678 -603 1566 -809 
Q 1416 -1088 1222 -1217 
Q 1028 -1347 759 -1347 
Q 597 -1347 397 -1278 
z
" transform="scale(0.015625)"/>
      </defs>
      <use xlink:href="#ArialMT-46"/>
      <use xlink:href="#ArialMT-72" transform="translate(61.083984 0)"/>
      <use xlink:href="#ArialMT-65" transform="translate(94.384766 0)"/>
      <use xlink:href="#ArialMT-71" transform="translate(150 0)"/>
      <use xlink:href="#ArialMT-75" transform="translate(205.615234 0)"/>
      <use xlink:href="#ArialMT-65" transform="translate(261.230469 0)"/>
      <use xlink:href="#ArialMT-6e" transform="translate(316.845703 0)"/>
      <use xlink:href="#ArialMT-63" transform="translate(372.460938 0)"/>
      <use xlink:href="#ArialMT-79" transform="translate(422.460938 0)"/>
     </g>
    </g>
   </g>
   <g id="patch_3">
    <path d="M 135.763636 790.36 
L 145.236364 790.36 
L 145.236364 788.333198 
L 135.763636 788.333198 
z
" clip-path="url(#p3bf65cb81d)" style="fill: #2c3e50; fill-opacity: 0.5; stroke: #ffffff; stroke-width: 0.811636; stroke-linejoin: miter"/>
   </g>
   <g id="patch_4">
    <path d="M 145.236364 790.36 
L 154.709091 790.36 
L 154.709091 790.36 
L 145.236364 790.36 
z
" clip-path="url(#p3bf65cb81d)" style="fill: #2c3e50; fill-opacity: 0.5; stroke: #ffffff; stroke-width: 0.811636; stroke-linejoin: miter"/>
   </g>
   <g id="patch_5">
    <path d="M 154.709091 790.36 
L 164.181818 790.36 
L 164.181818 786.306397 
L 154.709091 786.306397 
z
" clip-path="url(#p3bf65cb81d)" style="fill: #2c3e50; fill-opacity: 0.5; stroke: #ffffff; stroke-width: 0.811636; stroke-linejoin: miter"/>
   </g>
   <g id="patch_6">
    <path d="M 164.181818 790.36 
L 173.654545 790.36 
L 173.654545 788.333198 
L 164.181818 788.333198 
z
" clip-path="url(#p3bf65cb81d)" style="fill: #2c3e50; fill-opacity: 0.5; stroke: #ffffff; stroke-width: 0.811636; stroke-linejoin: miter"/>
   </g>
   <g id="patch_7">
    <path d="M 173.654545 790.36 
L 183.127273 790.36 
L 183.127273 788.333198 
L 173.654545 788.333198 
z
" clip-path="url(#p3bf65cb81d)" style="fill: #2c3e50; fill-opacity: 0.5; stroke: #ffffff; stroke-width: 0.811636; stroke-linejoin: miter"/>
   </g>
   <g id="patch_8">
    <path d="M 183.127273 790.36 
L 192.6 790.36 
L 192.6 786.306397 
L 183.127273 786.306397 
z
" clip-path="url(#p3bf65cb81d)" style="fill: #2c3e50; fill-opacity: 0.5; stroke: #ffffff; stroke-width: 0.811636; stroke-linejoin: miter"/>
   </g>
   <g id="patch_9">
    <path d="M 192.6 790.36 
L 202.072727 790.36 
L 202.072727 788.333198 
L 192.6 788.333198 
z
" clip-path="url(#p3bf65cb81d)" style="fill: #2c3e50; fill-opacity: 0.5; stroke: #ffffff; stroke-width: 0.811636; stroke-linejoin: miter"/>
   </g>
   <g id="patch_10">
    <path d="M 202.072727 790.36 
L 211.545455 790.36 
L 211.545455 786.306397 
L 202.072727 786.306397 
z
" clip-path="url(#p3bf65cb81d)" style="fill: #2c3e50; fill-opacity: 0.5; stroke: #ffffff; stroke-width: 0.811636; stroke-linejoin: miter"/>
   </g>
   <g id="patch_11">
    <path d="M 211.545455 790.36 
L 221.018182 790.36 
L 221.018182 786.306397 
L 211.545455 786.306397 
z
" clip-path="url(#p3bf65cb81d)" style="fill: #2c3e50; fill-opacity: 0.5; stroke: #ffffff; stroke-width: 0.811636; stroke-linejoin: miter"/>
   </g>
   <g id="patch_12">
    <path d="M 221.018182 790.36 
L 230.490909 790.36 
L 230.490909 786.306397 
L 221.018182 786.306397 
z
" clip-path="url(#p3bf65cb81d)" style="fill: #2c3e50; fill-opacity: 0.5; stroke: #ffffff; stroke-width: 0.811636; stroke-linejoin: miter"/>
   </g>
   <g id="patch_13">
    <path d="M 230.490909 790.36 
L 239.963636 790.36 
L 239.963636 788.333198 
L 230.490909 788.333198 
z
" clip-path="url(#p3bf65cb81d)" style="fill: #2c3e50; fill-opacity: 0.5; stroke: #ffffff; stroke-width: 0.811636; stroke-linejoin: miter"/>
   </g>
   <g id="patch_14">
    <path d="M 239.963636 790.36 
L 249.436364 790.36 
L 249.436364 786.306397 
L 239.963636 786.306397 
z
" clip-path="url(#p3bf65cb81d)" style="fill: #2c3e50; fill-opacity: 0.5; stroke: #ffffff; stroke-width: 0.811636; stroke-linejoin: miter"/>
   </g>
   <g id="patch_15">
    <path d="M 249.436364 790.36 
L 258.909091 790.36 
L 258.909091 788.333198 
L 249.436364 788.333198 
z
" clip-path="url(#p3bf65cb81d)" style="fill: #2c3e50; fill-opacity: 0.5; stroke: #ffffff; stroke-width: 0.811636; stroke-linejoin: miter"/>
   </g>
   <g id="patch_16">
    <path d="M 258.909091 790.36 
L 268.381818 790.36 
L 268.381818 780.225992 
L 258.909091 780.225992 
z
" clip-path="url(#p3bf65cb81d)" style="fill: #2c3e50; fill-opacity: 0.5; stroke: #ffffff; stroke-width: 0.811636; stroke-linejoin: miter"/>
   </g>
   <g id="patch_17">
    <path d="M 268.381818 790.36 
L 277.854545 790.36 
L 277.854545 774.145588 
L 268.381818 774.145588 
z
" clip-path="url(#p3bf65cb81d)" style="fill: #2c3e50; fill-opacity: 0.5; stroke: #ffffff; stroke-width: 0.811636; stroke-linejoin: miter"/>
   </g>
   <g id="patch_18">
    <path d="M 277.854545 790.36 
L 287.327273 790.36 
L 287.327273 768.065183 
L 277.854545 768.065183 
z
" clip-path="url(#p3bf65cb81d)" style="fill: #2c3e50; fill-opacity: 0.5; stroke: #ffffff; stroke-width: 0.811636; stroke-linejoin: miter"/>
   </g>
   <g id="patch_19">
    <path d="M 287.327273 790.36 
L 296.8 790.36 
L 296.8 772.118786 
L 287.327273 772.118786 
z
" clip-path="url(#p3bf65cb81d)" style="fill: #2c3e50; fill-opacity: 0.5; stroke: #ffffff; stroke-width: 0.811636; stroke-linejoin: miter"/>
   </g>
   <g id="patch_20">
    <path d="M 296.8 790.36 
L 306.272727 790.36 
L 306.272727 772.118786 
L 296.8 772.118786 
z
" clip-path="url(#p3bf65cb81d)" style="fill: #2c3e50; fill-opacity: 0.5; stroke: #ffffff; stroke-width: 0.811636; stroke-linejoin: miter"/>
   </g>
   <g id="patch_21">
    <path d="M 306.272727 790.36 
L 315.745455 790.36 
L 315.745455 770.091985 
L 306.272727 770.091985 
z
" clip-path="url(#p3bf65cb81d)" style="fill: #2c3e50; fill-opacity: 0.5; stroke: #ffffff; stroke-width: 0.811636; stroke-linejoin: miter"/>
   </g>
   <g id="patch_22">
    <path d="M 315.745455 790.36 
L 325.218182 790.36 
L 325.218182 774.145588 
L 315.745455 774.145588 
z
" clip-path="url(#p3bf65cb81d)" style="fill: #2c3e50; fill-opacity: 0.5; stroke: #ffffff; stroke-width: 0.811636; stroke-linejoin: miter"/>
   </g>
   <g id="patch_23">
    <path d="M 325.218182 790.36 
L 334.690909 790.36 
L 334.690909 764.01158 
L 325.218182 764.01158 
z
" clip-path="url(#p3bf65cb81d)" style="fill: #2c3e50; fill-opacity: 0.5; stroke: #ffffff; stroke-width: 0.811636; stroke-linejoin: miter"/>
   </g>
   <g id="patch_24">
    <path d="M 334.690909 790.36 
L 344.163636 790.36 
L 344.163636 757.931176 
L 334.690909 757.931176 
z
" clip-path="url(#p3bf65cb81d)" style="fill: #2c3e50; fill-opacity: 0.5; stroke: #ffffff; stroke-width: 0.811636; stroke-linejoin: miter"/>
   </g>
   <g id="patch_25">
    <path d="M 344.163636 790.36 
L 353.636364 790.36 
L 353.636364 749.82397 
L 344.163636 749.82397 
z
" clip-path="url(#p3bf65cb81d)" style="fill: #2c3e50; fill-opacity: 0.5; stroke: #ffffff; stroke-width: 0.811636; stroke-linejoin: miter"/>
   </g>
   <g id="patch_26">
    <path d="M 353.636364 790.36 
L 363.109091 790.36 
L 363.109091 749.82397 
L 353.636364 749.82397 
z
" clip-path="url(#p3bf65cb81d)" style="fill: #2c3e50; fill-opacity: 0.5; stroke: #ffffff; stroke-width: 0.811636; stroke-linejoin: miter"/>
   </g>
   <g id="patch_27">
    <path d="M 363.109091 790.36 
L 372.581818 790.36 
L 372.581818 743.743565 
L 363.109091 743.743565 
z
" clip-path="url(#p3bf65cb81d)" style="fill: #2c3e50; fill-opacity: 0.5; stroke: #ffffff; stroke-width: 0.811636; stroke-linejoin: miter"/>
   </g>
   <g id="patch_28">
    <path d="M 372.581818 790.36 
L 382.054545 790.36 
L 382.054545 725.502351 
L 372.581818 725.502351 
z
" clip-path="url(#p3bf65cb81d)" style="fill: #2c3e50; fill-opacity: 0.5; stroke: #ffffff; stroke-width: 0.811636; stroke-linejoin: miter"/>
   </g>
   <g id="patch_29">
    <path d="M 382.054545 790.36 
L 391.527273 790.36 
L 391.527273 713.341542 
L 382.054545 713.341542 
z
" clip-path="url(#p3bf65cb81d)" style="fill: #2c3e50; fill-opacity: 0.5; stroke: #ffffff; stroke-width: 0.811636; stroke-linejoin: miter"/>
   </g>
   <g id="patch_30">
    <path d="M 391.527273 790.36 
L 401 790.36 
L 401 705.234336 
L 391.527273 705.234336 
z
" clip-path="url(#p3bf65cb81d)" style="fill: #2c3e50; fill-opacity: 0.5; stroke: #ffffff; stroke-width: 0.811636; stroke-linejoin: miter"/>
   </g>
   <g id="patch_31">
    <path d="M 401 790.36 
L 410.472727 790.36 
L 410.472727 715.368344 
L 401 715.368344 
z
" clip-path="url(#p3bf65cb81d)" style="fill: #2c3e50; fill-opacity: 0.5; stroke: #ffffff; stroke-width: 0.811636; stroke-linejoin: miter"/>
   </g>
   <g id="patch_32">
    <path d="M 410.472727 790.36 
L 419.945455 790.36 
L 419.945455 695.100329 
L 410.472727 695.100329 
z
" clip-path="url(#p3bf65cb81d)" style="fill: #2c3e50; fill-opacity: 0.5; stroke: #ffffff; stroke-width: 0.811636; stroke-linejoin: miter"/>
   </g>
   <g id="patch_33">
    <path d="M 419.945455 790.36 
L 429.418182 790.36 
L 429.418182 684.966321 
L 419.945455 684.966321 
z
" clip-path="url(#p3bf65cb81d)" style="fill: #2c3e50; fill-opacity: 0.5; stroke: #ffffff; stroke-width: 0.811636; stroke-linejoin: miter"/>
   </g>
   <g id="patch_34">
    <path d="M 429.418182 790.36 
L 438.890909 790.36 
L 438.890909 666.725107 
L 429.418182 666.725107 
z
" clip-path="url(#p3bf65cb81d)" style="fill: #2c3e50; fill-opacity: 0.5; stroke: #ffffff; stroke-width: 0.811636; stroke-linejoin: miter"/>
   </g>
   <g id="patch_35">
    <path d="M 438.890909 790.36 
L 448.363636 790.36 
L 448.363636 618.081871 
L 438.890909 618.081871 
z
" clip-path="url(#p3bf65cb81d)" style="fill: #2c3e50; fill-opacity: 0.5; stroke: #ffffff; stroke-width: 0.811636; stroke-linejoin: miter"/>
   </g>
   <g id="patch_36">
    <path d="M 448.363636 790.36 
L 457.836364 790.36 
L 457.836364 646.457092 
L 448.363636 646.457092 
z
" clip-path="url(#p3bf65cb81d)" style="fill: #2c3e50; fill-opacity: 0.5; stroke: #ffffff; stroke-width: 0.811636; stroke-linejoin: miter"/>
   </g>
   <g id="patch_37">
    <path d="M 457.836364 790.36 
L 467.309091 790.36 
L 467.309091 559.304627 
L 457.836364 559.304627 
z
" clip-path="url(#p3bf65cb81d)" style="fill: #2c3e50; fill-opacity: 0.5; stroke: #ffffff; stroke-width: 0.811636; stroke-linejoin: miter"/>
   </g>
   <g id="patch_38">
    <path d="M 467.309091 790.36 
L 476.781818 790.36 
L 476.781818 618.081871 
L 467.309091 618.081871 
z
" clip-path="url(#p3bf65cb81d)" style="fill: #2c3e50; fill-opacity: 0.5; stroke: #ffffff; stroke-width: 0.811636; stroke-linejoin: miter"/>
   </g>
   <g id="patch_39">
    <path d="M 476.781818 790.36 
L 486.254545 790.36 
L 486.254545 577.545841 
L 476.781818 577.545841 
z
" clip-path="url(#p3bf65cb81d)" style="fill: #2c3e50; fill-opacity: 0.5; stroke: #ffffff; stroke-width: 0.811636; stroke-linejoin: miter"/>
   </g>
   <g id="patch_40">
    <path d="M 486.254545 790.36 
L 495.727273 790.36 
L 495.727273 565.385032 
L 486.254545 565.385032 
z
" clip-path="url(#p3bf65cb81d)" style="fill: #2c3e50; fill-opacity: 0.5; stroke: #ffffff; stroke-width: 0.811636; stroke-linejoin: miter"/>
   </g>
   <g id="patch_41">
    <path d="M 495.727273 790.36 
L 505.2 790.36 
L 505.2 522.8222 
L 495.727273 522.8222 
z
" clip-path="url(#p3bf65cb81d)" style="fill: #2c3e50; fill-opacity: 0.5; stroke: #ffffff; stroke-width: 0.811636; stroke-linejoin: miter"/>
   </g>
   <g id="patch_42">
    <path d="M 505.2 790.36 
L 514.672727 790.36 
L 514.672727 459.991353 
L 505.2 459.991353 
z
" clip-path="url(#p3bf65cb81d)" style="fill: #2c3e50; fill-opacity: 0.5; stroke: #ffffff; stroke-width: 0.811636; stroke-linejoin: miter"/>
   </g>
   <g id="patch_43">
    <path d="M 514.672727 790.36 
L 524.145455 790.36 
L 524.145455 453.910948 
L 514.672727 453.910948 
z
" clip-path="url(#p3bf65cb81d)" style="fill: #2c3e50; fill-opacity: 0.5; stroke: #ffffff; stroke-width: 0.811636; stroke-linejoin: miter"/>
   </g>
   <g id="patch_44">
    <path d="M 524.145455 790.36 
L 533.618182 790.36 
L 533.618182 466.071757 
L 524.145455 466.071757 
z
" clip-path="url(#p3bf65cb81d)" style="fill: #2c3e50; fill-opacity: 0.5; stroke: #ffffff; stroke-width: 0.811636; stroke-linejoin: miter"/>
   </g>
   <g id="patch_45">
    <path d="M 533.618182 790.36 
L 543.090909 790.36 
L 543.090909 403.24091 
L 533.618182 403.24091 
z
" clip-path="url(#p3bf65cb81d)" style="fill: #2c3e50; fill-opacity: 0.5; stroke: #ffffff; stroke-width: 0.811636; stroke-linejoin: miter"/>
   </g>
   <g id="patch_46">
    <path d="M 543.090909 790.36 
L 552.563636 790.36 
L 552.563636 370.812086 
L 543.090909 370.812086 
z
" clip-path="url(#p3bf65cb81d)" style="fill: #2c3e50; fill-opacity: 0.5; stroke: #ffffff; stroke-width: 0.811636; stroke-linejoin: miter"/>
   </g>
   <g id="patch_47">
    <path d="M 552.563636 790.36 
L 562.036364 790.36 
L 562.036364 356.624475 
L 552.563636 356.624475 
z
" clip-path="url(#p3bf65cb81d)" style="fill: #2c3e50; fill-opacity: 0.5; stroke: #ffffff; stroke-width: 0.811636; stroke-linejoin: miter"/>
   </g>
   <g id="patch_48">
    <path d="M 562.036364 790.36 
L 571.509091 790.36 
L 571.509091 384.999697 
L 562.036364 384.999697 
z
" clip-path="url(#p3bf65cb81d)" style="fill: #2c3e50; fill-opacity: 0.5; stroke: #ffffff; stroke-width: 0.811636; stroke-linejoin: miter"/>
   </g>
   <g id="patch_49">
    <path d="M 571.509091 790.36 
L 580.981818 790.36 
L 580.981818 295.82043 
L 571.509091 295.82043 
z
" clip-path="url(#p3bf65cb81d)" style="fill: #2c3e50; fill-opacity: 0.5; stroke: #ffffff; stroke-width: 0.811636; stroke-linejoin: miter"/>
   </g>
   <g id="patch_50">
    <path d="M 580.981818 790.36 
L 590.454545 790.36 
L 590.454545 271.498812 
L 580.981818 271.498812 
z
" clip-path="url(#p3bf65cb81d)" style="fill: #2c3e50; fill-opacity: 0.5; stroke: #ffffff; stroke-width: 0.811636; stroke-linejoin: miter"/>
   </g>
   <g id="patch_51">
    <path d="M 590.454545 790.36 
L 599.927273 790.36 
L 599.927273 305.954437 
L 590.454545 305.954437 
z
" clip-path="url(#p3bf65cb81d)" style="fill: #2c3e50; fill-opacity: 0.5; stroke: #ffffff; stroke-width: 0.811636; stroke-linejoin: miter"/>
   </g>
   <g id="patch_52">
    <path d="M 599.927273 790.36 
L 609.4 790.36 
L 609.4 178.265942 
L 599.927273 178.265942 
z
" clip-path="url(#p3bf65cb81d)" style="fill: #2c3e50; fill-opacity: 0.5; stroke: #ffffff; stroke-width: 0.811636; stroke-linejoin: miter"/>
   </g>
   <g id="patch_53">
    <path d="M 609.4 790.36 
L 618.872727 790.36 
L 618.872727 263.391606 
L 609.4 263.391606 
z
" clip-path="url(#p3bf65cb81d)" style="fill: #2c3e50; fill-opacity: 0.5; stroke: #ffffff; stroke-width: 0.811636; stroke-linejoin: miter"/>
   </g>
   <g id="patch_54">
    <path d="M 618.872727 790.36 
L 628.345455 790.36 
L 628.345455 123.542301 
L 618.872727 123.542301 
z
" clip-path="url(#p3bf65cb81d)" style="fill: #2c3e50; fill-opacity: 0.5; stroke: #ffffff; stroke-width: 0.811636; stroke-linejoin: miter"/>
   </g>
   <g id="patch_55">
    <path d="M 628.345455 790.36 
L 637.818182 790.36 
L 637.818182 127.595904 
L 628.345455 127.595904 
z
" clip-path="url(#p3bf65cb81d)" style="fill: #2c3e50; fill-opacity: 0.5; stroke: #ffffff; stroke-width: 0.811636; stroke-linejoin: miter"/>
   </g>
   <g id="patch_56">
    <path d="M 637.818182 790.36 
L 647.290909 790.36 
L 647.290909 220.828774 
L 637.818182 220.828774 
z
" clip-path="url(#p3bf65cb81d)" style="fill: #2c3e50; fill-opacity: 0.5; stroke: #ffffff; stroke-width: 0.811636; stroke-linejoin: miter"/>
   </g>
   <g id="patch_57">
    <path d="M 647.290909 790.36 
L 656.763636 790.36 
L 656.763636 103.274286 
L 647.290909 103.274286 
z
" clip-path="url(#p3bf65cb81d)" style="fill: #2c3e50; fill-opacity: 0.5; stroke: #ffffff; stroke-width: 0.811636; stroke-linejoin: miter"/>
   </g>
   <g id="patch_58">
    <path d="M 656.763636 790.36 
L 666.236364 790.36 
L 666.236364 220.828774 
L 656.763636 220.828774 
z
" clip-path="url(#p3bf65cb81d)" style="fill: #2c3e50; fill-opacity: 0.5; stroke: #ffffff; stroke-width: 0.811636; stroke-linejoin: miter"/>
   </g>
   <g id="patch_59">
    <path d="M 666.236364 790.36 
L 675.709091 790.36 
L 675.709091 176.23914 
L 666.236364 176.23914 
z
" clip-path="url(#p3bf65cb81d)" style="fill: #2c3e50; fill-opacity: 0.5; stroke: #ffffff; stroke-width: 0.811636; stroke-linejoin: miter"/>
   </g>
   <g id="patch_60">
    <path d="M 675.709091 790.36 
L 685.181818 790.36 
L 685.181818 172.185537 
L 675.709091 172.185537 
z
" clip-path="url(#p3bf65cb81d)" style="fill: #2c3e50; fill-opacity: 0.5; stroke: #ffffff; stroke-width: 0.811636; stroke-linejoin: miter"/>
   </g>
   <g id="patch_61">
    <path d="M 685.181818 790.36 
L 694.654545 790.36 
L 694.654545 113.408293 
L 685.181818 113.408293 
z
" clip-path="url(#p3bf65cb81d)" style="fill: #2c3e50; fill-opacity: 0.5; stroke: #ffffff; stroke-width: 0.811636; stroke-linejoin: miter"/>
   </g>
   <g id="patch_62">
    <path d="M 694.654545 790.36 
L 704.127273 790.36 
L 704.127273 235.016384 
L 694.654545 235.016384 
z
" clip-path="url(#p3bf65cb81d)" style="fill: #2c3e50; fill-opacity: 0.5; stroke: #ffffff; stroke-width: 0.811636; stroke-linejoin: miter"/>
   </g>
   <g id="patch_63">
    <path d="M 704.127273 790.36 
L 713.6 790.36 
L 713.6 232.989583 
L 704.127273 232.989583 
z
" clip-path="url(#p3bf65cb81d)" style="fill: #2c3e50; fill-opacity: 0.5; stroke: #ffffff; stroke-width: 0.811636; stroke-linejoin: miter"/>
   </g>
   <g id="patch_64">
    <path d="M 713.6 790.36 
L 723.072727 790.36 
L 723.072727 224.882377 
L 713.6 224.882377 
z
" clip-path="url(#p3bf65cb81d)" style="fill: #2c3e50; fill-opacity: 0.5; stroke: #ffffff; stroke-width: 0.811636; stroke-linejoin: miter"/>
   </g>
   <g id="patch_65">
    <path d="M 723.072727 790.36 
L 732.545455 790.36 
L 732.545455 287.713224 
L 723.072727 287.713224 
z
" clip-path="url(#p3bf65cb81d)" style="fill: #2c3e50; fill-opacity: 0.5; stroke: #ffffff; stroke-width: 0.811636; stroke-linejoin: miter"/>
   </g>
   <g id="patch_66">
    <path d="M 732.545455 790.36 
L 742.018182 790.36 
L 742.018182 220.828774 
L 732.545455 220.828774 
z
" clip-path="url(#p3bf65cb81d)" style="fill: #2c3e50; fill-opacity: 0.5; stroke: #ffffff; stroke-width: 0.811636; stroke-linejoin: miter"/>
   </g>
   <g id="patch_67">
    <path d="M 742.018182 790.36 
L 751.490909 790.36 
L 751.490909 316.088445 
L 742.018182 316.088445 
z
" clip-path="url(#p3bf65cb81d)" style="fill: #2c3e50; fill-opacity: 0.5; stroke: #ffffff; stroke-width: 0.811636; stroke-linejoin: miter"/>
   </g>
   <g id="patch_68">
    <path d="M 751.490909 790.36 
L 760.963636 790.36 
L 760.963636 368.785284 
L 751.490909 368.785284 
z
" clip-path="url(#p3bf65cb81d)" style="fill: #2c3e50; fill-opacity: 0.5; stroke: #ffffff; stroke-width: 0.811636; stroke-linejoin: miter"/>
   </g>
   <g id="patch_69">
    <path d="M 760.963636 790.36 
L 770.436364 790.36 
L 770.436364 384.999697 
L 760.963636 384.999697 
z
" clip-path="url(#p3bf65cb81d)" style="fill: #2c3e50; fill-opacity: 0.5; stroke: #ffffff; stroke-width: 0.811636; stroke-linejoin: miter"/>
   </g>
   <g id="patch_70">
    <path d="M 770.436364 790.36 
L 779.909091 790.36 
L 779.909091 387.026498 
L 770.436364 387.026498 
z
" clip-path="url(#p3bf65cb81d)" style="fill: #2c3e50; fill-opacity: 0.5; stroke: #ffffff; stroke-width: 0.811636; stroke-linejoin: miter"/>
   </g>
   <g id="patch_71">
    <path d="M 779.909091 790.36 
L 789.381818 790.36 
L 789.381818 413.374918 
L 779.909091 413.374918 
z
" clip-path="url(#p3bf65cb81d)" style="fill: #2c3e50; fill-opacity: 0.5; stroke: #ffffff; stroke-width: 0.811636; stroke-linejoin: miter"/>
   </g>
   <g id="patch_72">
    <path d="M 789.381818 790.36 
L 798.854545 790.36 
L 798.854545 457.964551 
L 789.381818 457.964551 
z
" clip-path="url(#p3bf65cb81d)" style="fill: #2c3e50; fill-opacity: 0.5; stroke: #ffffff; stroke-width: 0.811636; stroke-linejoin: miter"/>
   </g>
   <g id="patch_73">
    <path d="M 798.854545 790.36 
L 808.327273 790.36 
L 808.327273 484.312971 
L 798.854545 484.312971 
z
" clip-path="url(#p3bf65cb81d)" style="fill: #2c3e50; fill-opacity: 0.5; stroke: #ffffff; stroke-width: 0.811636; stroke-linejoin: miter"/>
   </g>
   <g id="patch_74">
    <path d="M 808.327273 790.36 
L 817.8 790.36 
L 817.8 514.714994 
L 808.327273 514.714994 
z
" clip-path="url(#p3bf65cb81d)" style="fill: #2c3e50; fill-opacity: 0.5; stroke: #ffffff; stroke-width: 0.811636; stroke-linejoin: miter"/>
   </g>
   <g id="patch_75">
    <path d="M 817.8 790.36 
L 827.272727 790.36 
L 827.272727 524.849001 
L 817.8 524.849001 
z
" clip-path="url(#p3bf65cb81d)" style="fill: #2c3e50; fill-opacity: 0.5; stroke: #ffffff; stroke-width: 0.811636; stroke-linejoin: miter"/>
   </g>
   <g id="patch_76">
    <path d="M 827.272727 790.36 
L 836.745455 790.36 
L 836.745455 589.70665 
L 827.272727 589.70665 
z
" clip-path="url(#p3bf65cb81d)" style="fill: #2c3e50; fill-opacity: 0.5; stroke: #ffffff; stroke-width: 0.811636; stroke-linejoin: miter"/>
   </g>
   <g id="patch_77">
    <path d="M 836.745455 790.36 
L 846.218182 790.36 
L 846.218182 583.626245 
L 836.745455 583.626245 
z
" clip-path="url(#p3bf65cb81d)" style="fill: #2c3e50; fill-opacity: 0.5; stroke: #ffffff; stroke-width: 0.811636; stroke-linejoin: miter"/>
   </g>
   <g id="patch_78">
    <path d="M 846.218182 790.36 
L 855.690909 790.36 
L 855.690909 628.215879 
L 846.218182 628.215879 
z
" clip-path="url(#p3bf65cb81d)" style="fill: #2c3e50; fill-opacity: 0.5; stroke: #ffffff; stroke-width: 0.811636; stroke-linejoin: miter"/>
   </g>
   <g id="patch_79">
    <path d="M 855.690909 790.36 
L 865.163636 790.36 
L 865.163636 618.081871 
L 855.690909 618.081871 
z
" clip-path="url(#p3bf65cb81d)" style="fill: #2c3e50; fill-opacity: 0.5; stroke: #ffffff; stroke-width: 0.811636; stroke-linejoin: miter"/>
   </g>
   <g id="patch_80">
    <path d="M 865.163636 790.36 
L 874.636364 790.36 
L 874.636364 644.430291 
L 865.163636 644.430291 
z
" clip-path="url(#p3bf65cb81d)" style="fill: #2c3e50; fill-opacity: 0.5; stroke: #ffffff; stroke-width: 0.811636; stroke-linejoin: miter"/>
   </g>
   <g id="patch_81">
    <path d="M 874.636364 790.36 
L 884.109091 790.36 
L 884.109091 697.12713 
L 874.636364 697.12713 
z
" clip-path="url(#p3bf65cb81d)" style="fill: #2c3e50; fill-opacity: 0.5; stroke: #ffffff; stroke-width: 0.811636; stroke-linejoin: miter"/>
   </g>
   <g id="patch_82">
    <path d="M 884.109091 790.36 
L 893.581818 790.36 
L 893.581818 705.234336 
L 884.109091 705.234336 
z
" clip-path="url(#p3bf65cb81d)" style="fill: #2c3e50; fill-opacity: 0.5; stroke: #ffffff; stroke-width: 0.811636; stroke-linejoin: miter"/>
   </g>
   <g id="patch_83">
    <path d="M 893.581818 790.36 
L 903.054545 790.36 
L 903.054545 709.287939 
L 893.581818 709.287939 
z
" clip-path="url(#p3bf65cb81d)" style="fill: #2c3e50; fill-opacity: 0.5; stroke: #ffffff; stroke-width: 0.811636; stroke-linejoin: miter"/>
   </g>
   <g id="patch_84">
    <path d="M 903.054545 790.36 
L 912.527273 790.36 
L 912.527273 709.287939 
L 903.054545 709.287939 
z
" clip-path="url(#p3bf65cb81d)" style="fill: #2c3e50; fill-opacity: 0.5; stroke: #ffffff; stroke-width: 0.811636; stroke-linejoin: miter"/>
   </g>
   <g id="patch_85">
    <path d="M 912.527273 790.36 
L 922 790.36 
L 922 733.609558 
L 912.527273 733.609558 
z
" clip-path="url(#p3bf65cb81d)" style="fill: #2c3e50; fill-opacity: 0.5; stroke: #ffffff; stroke-width: 0.811636; stroke-linejoin: miter"/>
   </g>
   <g id="patch_86">
    <path d="M 922 790.36 
L 931.472727 790.36 
L 931.472727 739.689962 
L 922 739.689962 
z
" clip-path="url(#p3bf65cb81d)" style="fill: #2c3e50; fill-opacity: 0.5; stroke: #ffffff; stroke-width: 0.811636; stroke-linejoin: miter"/>
   </g>
   <g id="patch_87">
    <path d="M 931.472727 790.36 
L 940.945455 790.36 
L 940.945455 749.82397 
L 931.472727 749.82397 
z
" clip-path="url(#p3bf65cb81d)" style="fill: #2c3e50; fill-opacity: 0.5; stroke: #ffffff; stroke-width: 0.811636; stroke-linejoin: miter"/>
   </g>
   <g id="patch_88">
    <path d="M 940.945455 790.36 
L 950.418182 790.36 
L 950.418182 766.038382 
L 940.945455 766.038382 
z
" clip-path="url(#p3bf65cb81d)" style="fill: #2c3e50; fill-opacity: 0.5; stroke: #ffffff; stroke-width: 0.811636; stroke-linejoin: miter"/>
   </g>
   <g id="patch_89">
    <path d="M 950.418182 790.36 
L 959.890909 790.36 
L 959.890909 759.957977 
L 950.418182 759.957977 
z
" clip-path="url(#p3bf65cb81d)" style="fill: #2c3e50; fill-opacity: 0.5; stroke: #ffffff; stroke-width: 0.811636; stroke-linejoin: miter"/>
   </g>
   <g id="patch_90">
    <path d="M 959.890909 790.36 
L 969.363636 790.36 
L 969.363636 776.172389 
L 959.890909 776.172389 
z
" clip-path="url(#p3bf65cb81d)" style="fill: #2c3e50; fill-opacity: 0.5; stroke: #ffffff; stroke-width: 0.811636; stroke-linejoin: miter"/>
   </g>
   <g id="patch_91">
    <path d="M 969.363636 790.36 
L 978.836364 790.36 
L 978.836364 772.118786 
L 969.363636 772.118786 
z
" clip-path="url(#p3bf65cb81d)" style="fill: #2c3e50; fill-opacity: 0.5; stroke: #ffffff; stroke-width: 0.811636; stroke-linejoin: miter"/>
   </g>
   <g id="patch_92">
    <path d="M 978.836364 790.36 
L 988.309091 790.36 
L 988.309091 766.038382 
L 978.836364 766.038382 
z
" clip-path="url(#p3bf65cb81d)" style="fill: #2c3e50; fill-opacity: 0.5; stroke: #ffffff; stroke-width: 0.811636; stroke-linejoin: miter"/>
   </g>
   <g id="patch_93">
    <path d="M 988.309091 790.36 
L 997.781818 790.36 
L 997.781818 784.279595 
L 988.309091 784.279595 
z
" clip-path="url(#p3bf65cb81d)" style="fill: #2c3e50; fill-opacity: 0.5; stroke: #ffffff; stroke-width: 0.811636; stroke-linejoin: miter"/>
   </g>
   <g id="patch_94">
    <path d="M 997.781818 790.36 
L 1007.254545 790.36 
L 1007.254545 784.279595 
L 997.781818 784.279595 
z
" clip-path="url(#p3bf65cb81d)" style="fill: #2c3e50; fill-opacity: 0.5; stroke: #ffffff; stroke-width: 0.811636; stroke-linejoin: miter"/>
   </g>
   <g id="patch_95">
    <path d="M 1007.254545 790.36 
L 1016.727273 790.36 
L 1016.727273 786.306397 
L 1007.254545 786.306397 
z
" clip-path="url(#p3bf65cb81d)" style="fill: #2c3e50; fill-opacity: 0.5; stroke: #ffffff; stroke-width: 0.811636; stroke-linejoin: miter"/>
   </g>
   <g id="patch_96">
    <path d="M 1016.727273 790.36 
L 1026.2 790.36 
L 1026.2 786.306397 
L 1016.727273 786.306397 
z
" clip-path="url(#p3bf65cb81d)" style="fill: #2c3e50; fill-opacity: 0.5; stroke: #ffffff; stroke-width: 0.811636; stroke-linejoin: miter"/>
   </g>
   <g id="patch_97">
    <path d="M 1026.2 790.36 
L 1035.672727 790.36 
L 1035.672727 786.306397 
L 1026.2 786.306397 
z
" clip-path="url(#p3bf65cb81d)" style="fill: #2c3e50; fill-opacity: 0.5; stroke: #ffffff; stroke-width: 0.811636; stroke-linejoin: miter"/>
   </g>
   <g id="patch_98">
    <path d="M 1035.672727 790.36 
L 1045.145455 790.36 
L 1045.145455 788.333198 
L 1035.672727 788.333198 
z
" clip-path="url(#p3bf65cb81d)" style="fill: #2c3e50; fill-opacity: 0.5; stroke: #ffffff; stroke-width: 0.811636; stroke-linejoin: miter"/>
   </g>
   <g id="patch_99">
    <path d="M 1045.145455 790.36 
L 1054.618182 790.36 
L 1054.618182 790.36 
L 1045.145455 790.36 
z
" clip-path="url(#p3bf65cb81d)" style="fill: #2c3e50; fill-opacity: 0.5; stroke: #ffffff; stroke-width: 0.811636; stroke-linejoin: miter"/>
   </g>
   <g id="patch_100">
    <path d="M 1054.618182 790.36 
L 1064.090909 790.36 
L 1064.090909 788.333198 
L 1054.618182 788.333198 
z
" clip-path="url(#p3bf65cb81d)" style="fill: #2c3e50; fill-opacity: 0.5; stroke: #ffffff; stroke-width: 0.811636; stroke-linejoin: miter"/>
   </g>
   <g id="patch_101">
    <path d="M 1064.090909 790.36 
L 1073.563636 790.36 
L 1073.563636 788.333198 
L 1064.090909 788.333198 
z
" clip-path="url(#p3bf65cb81d)" style="fill: #2c3e50; fill-opacity: 0.5; stroke: #ffffff; stroke-width: 0.811636; stroke-linejoin: miter"/>
   </g>
   <g id="patch_102">
    <path d="M 1073.563636 790.36 
L 1083.036364 790.36 
L 1083.036364 788.333198 
L 1073.563636 788.333198 
z
" clip-path="url(#p3bf65cb81d)" style="fill: #2c3e50; fill-opacity: 0.5; stroke: #ffffff; stroke-width: 0.811636; stroke-linejoin: miter"/>
   </g>
   <g id="line2d_15">
    <path d="M 135.763636 789.408677 
L 183.365281 787.517335 
L 207.166103 787.020165 
L 221.446597 786.721562 
L 230.966926 786.30017 
L 235.72709 785.919204 
L 240.487254 785.367783 
L 245.247419 784.611854 
L 250.007583 783.635815 
L 254.767748 782.450125 
L 264.288077 779.632654 
L 273.808406 776.713221 
L 278.56857 775.401434 
L 283.328735 774.247935 
L 288.088899 773.255754 
L 297.609228 771.599566 
L 307.129557 769.900897 
L 311.889721 768.834597 
L 316.649886 767.536975 
L 321.41005 765.96921 
L 326.170215 764.115239 
L 330.930379 761.977204 
L 335.690544 759.567053 
L 340.450708 756.897141 
L 345.210873 753.973442 
L 349.971037 750.794339 
L 354.731201 747.355858 
L 359.491366 743.661329 
L 364.25153 739.730986 
L 373.771859 731.344687 
L 388.052353 718.225622 
L 392.812517 713.744348 
L 397.572682 709.097002 
L 402.332846 704.160504 
L 407.093011 698.802742 
L 411.853175 692.908608 
L 416.613339 686.402326 
L 421.373504 679.261631 
L 426.133668 671.522154 
L 430.893833 663.272687 
L 440.414162 645.785656 
L 454.694655 619.208144 
L 468.975148 593.102565 
L 473.735313 583.877676 
L 478.495477 573.999859 
L 483.255642 563.281643 
L 488.015806 551.63967 
L 492.775971 539.119693 
L 497.536135 525.887142 
L 507.056464 498.274122 
L 516.576793 470.623516 
L 526.097122 443.768145 
L 535.617451 417.762756 
L 545.13778 392.750075 
L 554.658109 368.897817 
L 568.938602 333.890109 
L 573.698767 321.800926 
L 578.458931 309.283451 
L 583.219095 296.29366 
L 587.97926 282.860605 
L 607.019918 227.812227 
L 611.780082 215.093679 
L 616.540247 203.513754 
L 621.300411 193.434903 
L 626.060576 185.14312 
L 630.82074 178.798392 
L 635.580905 174.402938 
L 640.341069 171.796864 
L 645.101233 170.683727 
L 649.861398 170.681847 
L 654.621562 171.39314 
L 659.381727 172.478856 
L 664.141891 173.728894 
L 668.902056 175.108288 
L 673.66222 176.764259 
L 678.422385 178.98426 
L 683.182549 182.110536 
L 687.942714 186.434802 
L 692.702878 192.108245 
L 697.463042 199.099661 
L 702.223207 207.217168 
L 706.983371 216.184086 
L 711.743536 225.73846 
L 716.5037 235.717774 
L 721.263865 246.098309 
L 726.024029 256.977855 
L 730.784194 268.512504 
L 735.544358 280.834385 
L 740.304523 293.982059 
L 745.064687 307.868081 
L 754.585016 336.994862 
L 764.105345 366.274996 
L 773.625674 394.588463 
L 802.186661 477.61647 
L 825.987483 548.435709 
L 830.747647 561.842883 
L 835.507812 574.685476 
L 840.267976 586.918277 
L 845.028141 598.576394 
L 849.788305 609.764395 
L 859.308634 631.286873 
L 868.828963 652.254074 
L 873.589127 662.45778 
L 878.349292 672.28417 
L 883.109456 681.554183 
L 887.869621 690.120111 
L 892.629785 697.906129 
L 897.38995 704.925604 
L 902.150114 711.271584 
L 906.910279 717.08652 
L 911.670443 722.523349 
L 916.430608 727.710739 
L 925.950937 737.614274 
L 930.711101 742.343322 
L 935.471265 746.869218 
L 940.23143 751.127882 
L 944.991594 755.057268 
L 949.751759 758.61208 
L 954.511923 761.774657 
L 959.272088 764.560463 
L 964.032252 767.01679 
L 968.792417 769.214247 
L 978.312746 773.142593 
L 987.833074 776.801767 
L 997.353403 780.211334 
L 1002.113568 781.730579 
L 1006.873732 783.071887 
L 1011.633897 784.212766 
L 1016.394061 785.151665 
L 1021.154226 785.905836 
L 1025.91439 786.504817 
L 1035.434719 787.370158 
L 1044.955048 787.968175 
L 1059.235541 788.608694 
L 1083.036364 789.425398 
L 1083.036364 789.425398 
" clip-path="url(#p3bf65cb81d)" style="fill: none; stroke: #2c3e50; stroke-width: 1.5; stroke-linecap: round"/>
   </g>
   <g id="line2d_16">
    <path d="M 492.055292 790.36 
L 492.055292 68.92 
" clip-path="url(#p3bf65cb81d)" style="fill: none; stroke-dasharray: 18.5,8; stroke-dashoffset: 0; stroke: #e74c3c; stroke-width: 5"/>
   </g>
   <g id="line2d_17">
    <path d="M 655.373474 790.36 
L 655.373474 68.92 
" clip-path="url(#p3bf65cb81d)" style="fill: none; stroke: #2980b9; stroke-width: 5; stroke-linecap: round"/>
   </g>
   <g id="line2d_18">
    <path d="M 809.213374 790.36 
L 809.213374 68.92 
" clip-path="url(#p3bf65cb81d)" style="fill: none; stroke-dasharray: 18.5,8; stroke-dashoffset: 0; stroke: #27ae60; stroke-width: 5"/>
   </g>
   <g id="patch_103">
    <path d="M 88.4 790.36 
L 88.4 68.92 
" style="fill: none; stroke: #cccccc; stroke-width: 0.8; stroke-linejoin: miter; stroke-linecap: square"/>
   </g>
   <g id="patch_104">
    <path d="M 1130.4 790.36 
L 1130.4 68.92 
" style="fill: none; stroke: #cccccc; stroke-width: 0.8; stroke-linejoin: miter; stroke-linecap: square"/>
   </g>
   <g id="patch_105">
    <path d="M 88.4 790.36 
L 1130.4 790.36 
" style="fill: none; stroke: #cccccc; stroke-width: 0.8; stroke-linejoin: miter; stroke-linecap: square"/>
   </g>
   <g id="patch_106">
    <path d="M 88.4 68.92 
L 1130.4 68.92 
" style="fill: none; stroke: #cccccc; stroke-width: 0.8; stroke-linejoin: miter; stroke-linecap: square"/>
   </g>
   <g id="text_17">
    <!-- Risk Distribution: 10,000 Runs -->
    <g style="fill: #262626" transform="translate(378.2525 43.92) scale(0.32 -0.32)">
     <defs>
      <path id="Arial-BoldMT-52" d="M 469 0 
L 469 4581 
L 2416 4581 
Q 3150 4581 3483 4457 
Q 3816 4334 4016 4018 
Q 4216 3703 4216 3297 
Q 4216 2781 3912 2445 
Q 3609 2109 3006 2022 
Q 3306 1847 3501 1637 
Q 3697 1428 4028 894 
L 4588 0 
L 3481 0 
L 2813 997 
Q 2456 1531 2325 1670 
Q 2194 1809 2047 1861 
Q 1900 1913 1581 1913 
L 1394 1913 
L 1394 0 
L 469 0 
z
M 1394 2644 
L 2078 2644 
Q 2744 2644 2909 2700 
Q 3075 2756 3169 2893 
Q 3263 3031 3263 3238 
Q 3263 3469 3139 3611 
Q 3016 3753 2791 3791 
Q 2678 3806 2116 3806 
L 1394 3806 
L 1394 2644 
z
" transform="scale(0.015625)"/>
      <path id="Arial-BoldMT-69" d="M 459 3769 
L 459 4581 
L 1338 4581 
L 1338 3769 
L 459 3769 
z
M 459 0 
L 459 3319 
L 1338 3319 
L 1338 0 
L 459 0 
z
" transform="scale(0.015625)"/>
      <path id="Arial-BoldMT-73" d="M 150 947 
L 1031 1081 
Q 1088 825 1259 692 
Q 1431 559 1741 559 
Q 2081 559 2253 684 
Q 2369 772 2369 919 
Q 2369 1019 2306 1084 
Q 2241 1147 2013 1200 
Q 950 1434 666 1628 
Q 272 1897 272 2375 
Q 272 2806 612 3100 
Q 953 3394 1669 3394 
Q 2350 3394 2681 3172 
Q 3013 2950 3138 2516 
L 2309 2363 
Q 2256 2556 2107 2659 
Q 1959 2763 1684 2763 
Q 1338 2763 1188 2666 
Q 1088 2597 1088 2488 
Q 1088 2394 1175 2328 
Q 1294 2241 1995 2081 
Q 2697 1922 2975 1691 
Q 3250 1456 3250 1038 
Q 3250 581 2869 253 
Q 2488 -75 1741 -75 
Q 1063 -75 667 200 
Q 272 475 150 947 
z
" transform="scale(0.015625)"/>
      <path id="Arial-BoldMT-6b" d="M 428 0 
L 428 4581 
L 1306 4581 
L 1306 2150 
L 2334 3319 
L 3416 3319 
L 2281 2106 
L 3497 0 
L 2550 0 
L 1716 1491 
L 1306 1063 
L 1306 0 
L 428 0 
z
" transform="scale(0.015625)"/>
      <path id="Arial-BoldMT-20" transform="scale(0.015625)"/>
      <path id="Arial-BoldMT-44" d="M 463 4581 
L 2153 4581 
Q 2725 4581 3025 4494 
Q 3428 4375 3715 4072 
Q 4003 3769 4153 3330 
Q 4303 2891 4303 2247 
Q 4303 1681 4163 1272 
Q 3991 772 3672 463 
Q 3431 228 3022 97 
Q 2716 0 2203 0 
L 463 0 
L 463 4581 
z
M 1388 3806 
L 1388 772 
L 2078 772 
Q 2466 772 2638 816 
Q 2863 872 3011 1006 
Q 3159 1141 3253 1448 
Q 3347 1756 3347 2288 
Q 3347 2819 3253 3103 
Q 3159 3388 2990 3547 
Q 2822 3706 2563 3763 
Q 2369 3806 1803 3806 
L 1388 3806 
z
" transform="scale(0.015625)"/>
      <path id="Arial-BoldMT-74" d="M 1981 3319 
L 1981 2619 
L 1381 2619 
L 1381 1281 
Q 1381 875 1398 808 
Q 1416 741 1477 697 
Q 1538 653 1625 653 
Q 1747 653 1978 738 
L 2053 56 
Q 1747 -75 1359 -75 
Q 1122 -75 931 4 
Q 741 84 652 211 
Q 563 338 528 553 
Q 500 706 500 1172 
L 500 2619 
L 97 2619 
L 97 3319 
L 500 3319 
L 500 3978 
L 1381 4491 
L 1381 3319 
L 1981 3319 
z
" transform="scale(0.015625)"/>
      <path id="Arial-BoldMT-72" d="M 1300 0 
L 422 0 
L 422 3319 
L 1238 3319 
L 1238 2847 
Q 1447 3181 1614 3287 
Q 1781 3394 1994 3394 
Q 2294 3394 2572 3228 
L 2300 2463 
Q 2078 2606 1888 2606 
Q 1703 2606 1575 2504 
Q 1447 2403 1373 2137 
Q 1300 1872 1300 1025 
L 1300 0 
z
" transform="scale(0.015625)"/>
      <path id="Arial-BoldMT-62" d="M 422 0 
L 422 4581 
L 1300 4581 
L 1300 2931 
Q 1706 3394 2263 3394 
Q 2869 3394 3266 2955 
Q 3663 2516 3663 1694 
Q 3663 844 3258 384 
Q 2853 -75 2275 -75 
Q 1991 -75 1714 67 
Q 1438 209 1238 488 
L 1238 0 
L 422 0 
z
M 1294 1731 
Q 1294 1216 1456 969 
Q 1684 619 2063 619 
Q 2353 619 2558 867 
Q 2763 1116 2763 1650 
Q 2763 2219 2556 2470 
Q 2350 2722 2028 2722 
Q 1713 2722 1503 2476 
Q 1294 2231 1294 1731 
z
" transform="scale(0.015625)"/>
      <path id="Arial-BoldMT-75" d="M 2644 0 
L 2644 497 
Q 2463 231 2167 78 
Q 1872 -75 1544 -75 
Q 1209 -75 943 72 
Q 678 219 559 484 
Q 441 750 441 1219 
L 441 3319 
L 1319 3319 
L 1319 1794 
Q 1319 1094 1367 936 
Q 1416 778 1544 686 
Q 1672 594 1869 594 
Q 2094 594 2272 717 
Q 2450 841 2515 1023 
Q 2581 1206 2581 1919 
L 2581 3319 
L 3459 3319 
L 3459 0 
L 2644 0 
z
" transform="scale(0.015625)"/>
      <path id="Arial-BoldMT-6f" d="M 256 1706 
Q 256 2144 472 2553 
Q 688 2963 1083 3178 
Q 1478 3394 1966 3394 
Q 2719 3394 3200 2905 
Q 3681 2416 3681 1669 
Q 3681 916 3195 420 
Q 2709 -75 1972 -75 
Q 1516 -75 1102 131 
Q 688 338 472 736 
Q 256 1134 256 1706 
z
M 1156 1659 
Q 1156 1166 1390 903 
Q 1625 641 1969 641 
Q 2313 641 2545 903 
Q 2778 1166 2778 1666 
Q 2778 2153 2545 2415 
Q 2313 2678 1969 2678 
Q 1625 2678 1390 2415 
Q 1156 2153 1156 1659 
z
" transform="scale(0.015625)"/>
      <path id="Arial-BoldMT-6e" d="M 3478 0 
L 2600 0 
L 2600 1694 
Q 2600 2231 2544 2389 
Q 2488 2547 2361 2634 
Q 2234 2722 2056 2722 
Q 1828 2722 1647 2597 
Q 1466 2472 1398 2265 
Q 1331 2059 1331 1503 
L 1331 0 
L 453 0 
L 453 3319 
L 1269 3319 
L 1269 2831 
Q 1703 3394 2363 3394 
Q 2653 3394 2893 3289 
Q 3134 3184 3257 3021 
Q 3381 2859 3429 2653 
Q 3478 2447 3478 2063 
L 3478 0 
z
" transform="scale(0.015625)"/>
      <path id="Arial-BoldMT-3a" d="M 628 2441 
L 628 3319 
L 1506 3319 
L 1506 2441 
L 628 2441 
z
M 628 0 
L 628 878 
L 1506 878 
L 1506 0 
L 628 0 
z
" transform="scale(0.015625)"/>
      <path id="Arial-BoldMT-31" d="M 2519 0 
L 1641 0 
L 1641 3309 
Q 1159 2859 506 2644 
L 506 3441 
Q 850 3553 1253 3867 
Q 1656 4181 1806 4600 
L 2519 4600 
L 2519 0 
z
" transform="scale(0.015625)"/>
      <path id="Arial-BoldMT-30" d="M 1756 4600 
Q 2422 4600 2797 4125 
Q 3244 3563 3244 2259 
Q 3244 959 2794 391 
Q 2422 -78 1756 -78 
Q 1088 -78 678 436 
Q 269 950 269 2269 
Q 269 3563 719 4131 
Q 1091 4600 1756 4600 
z
M 1756 3872 
Q 1597 3872 1472 3770 
Q 1347 3669 1278 3406 
Q 1188 3066 1188 2259 
Q 1188 1453 1269 1151 
Q 1350 850 1473 750 
Q 1597 650 1756 650 
Q 1916 650 2041 751 
Q 2166 853 2234 1116 
Q 2325 1453 2325 2259 
Q 2325 3066 2244 3367 
Q 2163 3669 2039 3770 
Q 1916 3872 1756 3872 
z
" transform="scale(0.015625)"/>
      <path id="Arial-BoldMT-2c" d="M 438 878 
L 1316 878 
L 1316 250 
Q 1316 -131 1250 -351 
Q 1184 -572 1001 -747 
Q 819 -922 538 -1022 
L 366 -659 
Q 631 -572 743 -419 
Q 856 -266 863 0 
L 438 0 
L 438 878 
z
" transform="scale(0.015625)"/>
     </defs>
     <use xlink:href="#Arial-BoldMT-52"/>
     <use xlink:href="#Arial-BoldMT-69" transform="translate(72.216797 0)"/>
     <use xlink:href="#Arial-BoldMT-73" transform="translate(100 0)"/>
     <use xlink:href="#Arial-BoldMT-6b" transform="translate(155.615234 0)"/>
     <use xlink:href="#Arial-BoldMT-20" transform="translate(211.230469 0)"/>
     <use xlink:href="#Arial-BoldMT-44" transform="translate(239.013672 0)"/>
     <use xlink:href="#Arial-BoldMT-69" transform="translate(311.230469 0)"/>
     <use xlink:href="#Arial-BoldMT-73" transform="translate(339.013672 0)"/>
     <use xlink:href="#Arial-BoldMT-74" transform="translate(394.628906 0)"/>
     <use xlink:href="#Arial-BoldMT-72" transform="translate(427.929688 0)"/>
     <use xlink:href="#Arial-BoldMT-69" transform="translate(466.845703 0)"/>
     <use xlink:href="#Arial-BoldMT-62" transform="translate(494.628906 0)"/>
     <use xlink:href="#Arial-BoldMT-75" transform="translate(555.712891 0)"/>
     <use xlink:href="#Arial-BoldMT-74" transform="translate(616.796875 0)"/>
     <use xlink:href="#Arial-BoldMT-69" transform="translate(650.097656 0)"/>
     <use xlink:href="#Arial-BoldMT-6f" transform="translate(677.880859 0)"/>
     <use xlink:href="#Arial-BoldMT-6e" transform="translate(738.964844 0)"/>
     <use xlink:href="#Arial-BoldMT-3a" transform="translate(800.048828 0)"/>
     <use xlink:href="#Arial-BoldMT-20" transform="translate(833.349609 0)"/>
     <use xlink:href="#Arial-BoldMT-31" transform="translate(861.132812 0)"/>
     <use xlink:href="#Arial-BoldMT-30" transform="translate(916.748047 0)"/>
     <use xlink:href="#Arial-BoldMT-2c" transform="translate(972.363281 0)"/>
     <use xlink:href="#Arial-BoldMT-30" transform="translate(1000.146484 0)"/>
     <use xlink:href="#Arial-BoldMT-30" transform="translate(1055.761719 0)"/>
     <use xlink:href="#Arial-BoldMT-30" transform="translate(1111.376953 0)"/>
     <use xlink:href="#Arial-BoldMT-20" transform="translate(1166.992188 0)"/>
     <use xlink:href="#Arial-BoldMT-52" transform="translate(1194.775391 0)"/>
     <use xlink:href="#Arial-BoldMT-75" transform="translate(1266.992188 0)"/>
     <use xlink:href="#Arial-BoldMT-6e" transform="translate(1328.076172 0)"/>
     <use xlink:href="#Arial-BoldMT-73" transform="translate(1389.160156 0)"/>
    </g>
   </g>
   <g id="legend_1">
    <g id="patch_107">
     <path d="M 105.8 182.147187 
L 392.655937 182.147187 
Q 397.055937 182.147187 397.055937 177.747187 
L 397.055937 86.32 
Q 397.055937 81.92 392.655937 81.92 
L 105.8 81.92 
Q 101.4 81.92 101.4 86.32 
L 101.4 177.747187 
Q 101.4 182.147187 105.8 182.147187 
z
" style="fill: #4d4d4d; opacity: 0.5; stroke: #4d4d4d; stroke-linejoin: miter"/>
    </g>
    <g id="patch_108">
     <path d="M 103.8 180.147187 
L 390.655937 180.147187 
Q 395.055937 180.147187 395.055937 175.747187 
L 395.055937 84.32 
Q 395.055937 79.92 390.655937 79.92 
L 103.8 79.92 
Q 99.4 79.92 99.4 84.32 
L 99.4 175.747187 
Q 99.4 180.147187 103.8 180.147187 
z
" style="fill: #ffffff; stroke: #cccccc; stroke-linejoin: miter"/>
    </g>
    <g id="line2d_19">
     <path d="M 108.2 96.767188 
L 130.2 96.767188 
L 152.2 96.767188 
" style="fill: none; stroke-dasharray: 18.5,8; stroke-dashoffset: 0; stroke: #e74c3c; stroke-width: 5"/>
    </g>
    <g id="text_18">
     <!-- P90 Downside: 9.25% -->
     <g style="fill: #262626" transform="translate(169.8 104.467188) scale(0.22 -0.22)">
      <defs>
       <path id="ArialMT-50" d="M 494 0 
L 494 4581 
L 2222 4581 
Q 2678 4581 2919 4538 
Q 3256 4481 3484 4323 
Q 3713 4166 3852 3881 
Q 3991 3597 3991 3256 
Q 3991 2672 3619 2267 
Q 3247 1863 2275 1863 
L 1100 1863 
L 1100 0 
L 494 0 
z
M 1100 2403 
L 2284 2403 
Q 2872 2403 3119 2622 
Q 3366 2841 3366 3238 
Q 3366 3525 3220 3729 
Q 3075 3934 2838 4000 
Q 2684 4041 2272 4041 
L 1100 4041 
L 1100 2403 
z
" transform="scale(0.015625)"/>
       <path id="ArialMT-39" d="M 350 1059 
L 891 1109 
Q 959 728 1153 556 
Q 1347 384 1650 384 
Q 1909 384 2104 503 
Q 2300 622 2425 820 
Q 2550 1019 2634 1356 
Q 2719 1694 2719 2044 
Q 2719 2081 2716 2156 
Q 2547 1888 2255 1720 
Q 1963 1553 1622 1553 
Q 1053 1553 659 1965 
Q 266 2378 266 3053 
Q 266 3750 677 4175 
Q 1088 4600 1706 4600 
Q 2153 4600 2523 4359 
Q 2894 4119 3086 3673 
Q 3278 3228 3278 2384 
Q 3278 1506 3087 986 
Q 2897 466 2520 194 
Q 2144 -78 1638 -78 
Q 1100 -78 759 220 
Q 419 519 350 1059 
z
M 2653 3081 
Q 2653 3566 2395 3850 
Q 2138 4134 1775 4134 
Q 1400 4134 1122 3828 
Q 844 3522 844 3034 
Q 844 2597 1108 2323 
Q 1372 2050 1759 2050 
Q 2150 2050 2401 2323 
Q 2653 2597 2653 3081 
z
" transform="scale(0.015625)"/>
       <path id="ArialMT-44" d="M 494 0 
L 494 4581 
L 2072 4581 
Q 2606 4581 2888 4516 
Q 3281 4425 3559 4188 
Q 3922 3881 4101 3404 
Q 4281 2928 4281 2316 
Q 4281 1794 4159 1391 
Q 4038 988 3847 723 
Q 3656 459 3429 307 
Q 3203 156 2883 78 
Q 2563 0 2147 0 
L 494 0 
z
M 1100 541 
L 2078 541 
Q 2531 541 2789 625 
Q 3047 709 3200 863 
Q 3416 1078 3536 1442 
Q 3656 1806 3656 2325 
Q 3656 3044 3420 3430 
Q 3184 3816 2847 3947 
Q 2603 4041 2063 4041 
L 1100 4041 
L 1100 541 
z
" transform="scale(0.015625)"/>
       <path id="ArialMT-6f" d="M 213 1659 
Q 213 2581 725 3025 
Q 1153 3394 1769 3394 
Q 2453 3394 2887 2945 
Q 3322 2497 3322 1706 
Q 3322 1066 3130 698 
Q 2938 331 2570 128 
Q 2203 -75 1769 -75 
Q 1072 -75 642 372 
Q 213 819 213 1659 
z
M 791 1659 
Q 791 1022 1069 705 
Q 1347 388 1769 388 
Q 2188 388 2466 706 
Q 2744 1025 2744 1678 
Q 2744 2294 2464 2611 
Q 2184 2928 1769 2928 
Q 1347 2928 1069 2612 
Q 791 2297 791 1659 
z
" transform="scale(0.015625)"/>
       <path id="ArialMT-77" d="M 1034 0 
L 19 3319 
L 600 3319 
L 1128 1403 
L 1325 691 
Q 1338 744 1497 1375 
L 2025 3319 
L 2603 3319 
L 3100 1394 
L 3266 759 
L 3456 1400 
L 4025 3319 
L 4572 3319 
L 3534 0 
L 2950 0 
L 2422 1988 
L 2294 2553 
L 1622 0 
L 1034 0 
z
" transform="scale(0.015625)"/>
       <path id="ArialMT-73" d="M 197 991 
L 753 1078 
Q 800 744 1014 566 
Q 1228 388 1613 388 
Q 2000 388 2187 545 
Q 2375 703 2375 916 
Q 2375 1106 2209 1216 
Q 2094 1291 1634 1406 
Q 1016 1563 777 1677 
Q 538 1791 414 1992 
Q 291 2194 291 2438 
Q 291 2659 392 2848 
Q 494 3038 669 3163 
Q 800 3259 1026 3326 
Q 1253 3394 1513 3394 
Q 1903 3394 2198 3281 
Q 2494 3169 2634 2976 
Q 2775 2784 2828 2463 
L 2278 2388 
Q 2241 2644 2061 2787 
Q 1881 2931 1553 2931 
Q 1166 2931 1000 2803 
Q 834 2675 834 2503 
Q 834 2394 903 2306 
Q 972 2216 1119 2156 
Q 1203 2125 1616 2013 
Q 2213 1853 2448 1751 
Q 2684 1650 2818 1456 
Q 2953 1263 2953 975 
Q 2953 694 2789 445 
Q 2625 197 2315 61 
Q 2006 -75 1616 -75 
Q 969 -75 630 194 
Q 291 463 197 991 
z
" transform="scale(0.015625)"/>
       <path id="ArialMT-69" d="M 425 3934 
L 425 4581 
L 988 4581 
L 988 3934 
L 425 3934 
z
M 425 0 
L 425 3319 
L 988 3319 
L 988 0 
L 425 0 
z
" transform="scale(0.015625)"/>
       <path id="ArialMT-64" d="M 2575 0 
L 2575 419 
Q 2259 -75 1647 -75 
Q 1250 -75 917 144 
Q 584 363 401 755 
Q 219 1147 219 1656 
Q 219 2153 384 2558 
Q 550 2963 881 3178 
Q 1213 3394 1622 3394 
Q 1922 3394 2156 3267 
Q 2391 3141 2538 2938 
L 2538 4581 
L 3097 4581 
L 3097 0 
L 2575 0 
z
M 797 1656 
Q 797 1019 1065 703 
Q 1334 388 1700 388 
Q 2069 388 2326 689 
Q 2584 991 2584 1609 
Q 2584 2291 2321 2609 
Q 2059 2928 1675 2928 
Q 1300 2928 1048 2622 
Q 797 2316 797 1656 
z
" transform="scale(0.015625)"/>
       <path id="ArialMT-3a" d="M 578 2678 
L 578 3319 
L 1219 3319 
L 1219 2678 
L 578 2678 
z
M 578 0 
L 578 641 
L 1219 641 
L 1219 0 
L 578 0 
z
" transform="scale(0.015625)"/>
       <path id="ArialMT-2e" d="M 581 0 
L 581 641 
L 1222 641 
L 1222 0 
L 581 0 
z
" transform="scale(0.015625)"/>
      </defs>
      <use xlink:href="#ArialMT-50"/>
      <use xlink:href="#ArialMT-39" transform="translate(66.699219 0)"/>
      <use xlink:href="#ArialMT-30" transform="translate(122.314453 0)"/>
      <use xlink:href="#ArialMT-20" transform="translate(177.929688 0)"/>
      <use xlink:href="#ArialMT-44" transform="translate(205.712891 0)"/>
      <use xlink:href="#ArialMT-6f" transform="translate(277.929688 0)"/>
      <use xlink:href="#ArialMT-77" transform="translate(333.544922 0)"/>
      <use xlink:href="#ArialMT-6e" transform="translate(405.761719 0)"/>
      <use xlink:href="#ArialMT-73" transform="translate(461.376953 0)"/>
      <use xlink:href="#ArialMT-69" transform="translate(511.376953 0)"/>
      <use xlink:href="#ArialMT-64" transform="translate(533.59375 0)"/>
      <use xlink:href="#ArialMT-65" transform="translate(589.208984 0)"/>
      <use xlink:href="#ArialMT-3a" transform="translate(644.824219 0)"/>
      <use xlink:href="#ArialMT-20" transform="translate(672.607422 0)"/>
      <use xlink:href="#ArialMT-39" transform="translate(700.390625 0)"/>
      <use xlink:href="#ArialMT-2e" transform="translate(756.005859 0)"/>
      <use xlink:href="#ArialMT-32" transform="translate(783.789062 0)"/>
      <use xlink:href="#ArialMT-35" transform="translate(839.404297 0)"/>
      <use xlink:href="#ArialMT-25" transform="translate(895.019531 0)"/>
     </g>
    </g>
    <g id="line2d_20">
     <path d="M 108.2 127.886875 
L 130.2 127.886875 
L 152.2 127.886875 
" style="fill: none; stroke: #2980b9; stroke-width: 5; stroke-linecap: round"/>
    </g>
    <g id="text_19">
     <!-- P50 Median: 14.40% -->
     <g style="fill: #262626" transform="translate(169.8 135.586875) scale(0.22 -0.22)">
      <defs>
       <path id="ArialMT-4d" d="M 475 0 
L 475 4581 
L 1388 4581 
L 2472 1338 
Q 2622 884 2691 659 
Q 2769 909 2934 1394 
L 4031 4581 
L 4847 4581 
L 4847 0 
L 4263 0 
L 4263 3834 
L 2931 0 
L 2384 0 
L 1059 3900 
L 1059 0 
L 475 0 
z
" transform="scale(0.015625)"/>
       <path id="ArialMT-61" d="M 2588 409 
Q 2275 144 1986 34 
Q 1697 -75 1366 -75 
Q 819 -75 525 192 
Q 231 459 231 875 
Q 231 1119 342 1320 
Q 453 1522 633 1644 
Q 813 1766 1038 1828 
Q 1203 1872 1538 1913 
Q 2219 1994 2541 2106 
Q 2544 2222 2544 2253 
Q 2544 2597 2384 2738 
Q 2169 2928 1744 2928 
Q 1347 2928 1158 2789 
Q 969 2650 878 2297 
L 328 2372 
Q 403 2725 575 2942 
Q 747 3159 1072 3276 
Q 1397 3394 1825 3394 
Q 2250 3394 2515 3294 
Q 2781 3194 2906 3042 
Q 3031 2891 3081 2659 
Q 3109 2516 3109 2141 
L 3109 1391 
Q 3109 606 3145 398 
Q 3181 191 3288 0 
L 2700 0 
Q 2613 175 2588 409 
z
M 2541 1666 
Q 2234 1541 1622 1453 
Q 1275 1403 1131 1340 
Q 988 1278 909 1158 
Q 831 1038 831 891 
Q 831 666 1001 516 
Q 1172 366 1500 366 
Q 1825 366 2078 508 
Q 2331 650 2450 897 
Q 2541 1088 2541 1459 
L 2541 1666 
z
" transform="scale(0.015625)"/>
       <path id="ArialMT-34" d="M 2069 0 
L 2069 1097 
L 81 1097 
L 81 1613 
L 2172 4581 
L 2631 4581 
L 2631 1613 
L 3250 1613 
L 3250 1097 
L 2631 1097 
L 2631 0 
L 2069 0 
z
M 2069 1613 
L 2069 3678 
L 634 1613 
L 2069 1613 
z
" transform="scale(0.015625)"/>
      </defs>
      <use xlink:href="#ArialMT-50"/>
      <use xlink:href="#ArialMT-35" transform="translate(66.699219 0)"/>
      <use xlink:href="#ArialMT-30" transform="translate(122.314453 0)"/>
      <use xlink:href="#ArialMT-20" transform="translate(177.929688 0)"/>
      <use xlink:href="#ArialMT-4d" transform="translate(205.712891 0)"/>
      <use xlink:href="#ArialMT-65" transform="translate(289.013672 0)"/>
      <use xlink:href="#ArialMT-64" transform="translate(344.628906 0)"/>
      <use xlink:href="#ArialMT-69" transform="translate(400.244141 0)"/>
      <use xlink:href="#ArialMT-61" transform="translate(422.460938 0)"/>
      <use xlink:href="#ArialMT-6e" transform="translate(478.076172 0)"/>
      <use xlink:href="#ArialMT-3a" transform="translate(533.691406 0)"/>
      <use xlink:href="#ArialMT-20" transform="translate(561.474609 0)"/>
      <use xlink:href="#ArialMT-31" transform="translate(589.257812 0)"/>
      <use xlink:href="#ArialMT-34" transform="translate(644.873047 0)"/>
      <use xlink:href="#ArialMT-2e" transform="translate(700.488281 0)"/>
      <use xlink:href="#ArialMT-34" transform="translate(728.271484 0)"/>
      <use xlink:href="#ArialMT-30" transform="translate(783.886719 0)"/>
      <use xlink:href="#ArialMT-25" transform="translate(839.501953 0)"/>
     </g>
    </g>
    <g id="line2d_21">
     <path d="M 108.2 159.274688 
L 130.2 159.274688 
L 152.2 159.274688 
" style="fill: none; stroke-dasharray: 18.5,8; stroke-dashoffset: 0; stroke: #27ae60; stroke-width: 5"/>
    </g>
    <g id="text_20">
     <!-- P10 Upside: 19.26% -->
     <g style="fill: #262626" transform="translate(169.8 166.974688) scale(0.22 -0.22)">
      <defs>
       <path id="ArialMT-55" d="M 3500 4581 
L 4106 4581 
L 4106 1934 
Q 4106 1244 3950 837 
Q 3794 431 3386 176 
Q 2978 -78 2316 -78 
Q 1672 -78 1262 144 
Q 853 366 678 786 
Q 503 1206 503 1934 
L 503 4581 
L 1109 4581 
L 1109 1938 
Q 1109 1341 1220 1058 
Q 1331 775 1601 622 
Q 1872 469 2263 469 
Q 2931 469 3215 772 
Q 3500 1075 3500 1938 
L 3500 4581 
z
" transform="scale(0.015625)"/>
       <path id="ArialMT-70" d="M 422 -1272 
L 422 3319 
L 934 3319 
L 934 2888 
Q 1116 3141 1344 3267 
Q 1572 3394 1897 3394 
Q 2322 3394 2647 3175 
Q 2972 2956 3137 2557 
Q 3303 2159 3303 1684 
Q 3303 1175 3120 767 
Q 2938 359 2589 142 
Q 2241 -75 1856 -75 
Q 1575 -75 1351 44 
Q 1128 163 984 344 
L 984 -1272 
L 422 -1272 
z
M 931 1641 
Q 931 1000 1190 694 
Q 1450 388 1819 388 
Q 2194 388 2461 705 
Q 2728 1022 2728 1688 
Q 2728 2322 2467 2637 
Q 2206 2953 1844 2953 
Q 1484 2953 1207 2617 
Q 931 2281 931 1641 
z
" transform="scale(0.015625)"/>
       <path id="ArialMT-36" d="M 3184 3459 
L 2625 3416 
Q 2550 3747 2413 3897 
Q 2184 4138 1850 4138 
Q 1581 4138 1378 3988 
Q 1113 3794 959 3422 
Q 806 3050 800 2363 
Q 1003 2672 1297 2822 
Q 1591 2972 1913 2972 
Q 2475 2972 2870 2558 
Q 3266 2144 3266 1488 
Q 3266 1056 3080 686 
Q 2894 316 2569 119 
Q 2244 -78 1831 -78 
Q 1128 -78 684 439 
Q 241 956 241 2144 
Q 241 3472 731 4075 
Q 1159 4600 1884 4600 
Q 2425 4600 2770 4297 
Q 3116 3994 3184 3459 
z
M 888 1484 
Q 888 1194 1011 928 
Q 1134 663 1356 523 
Q 1578 384 1822 384 
Q 2178 384 2434 671 
Q 2691 959 2691 1453 
Q 2691 1928 2437 2201 
Q 2184 2475 1800 2475 
Q 1419 2475 1153 2201 
Q 888 1928 888 1484 
z
" transform="scale(0.015625)"/>
      </defs>
      <use xlink:href="#ArialMT-50"/>
      <use xlink:href="#ArialMT-31" transform="translate(66.699219 0)"/>
      <use xlink:href="#ArialMT-30" transform="translate(122.314453 0)"/>
      <use xlink:href="#ArialMT-20" transform="translate(177.929688 0)"/>
      <use xlink:href="#ArialMT-55" transform="translate(205.712891 0)"/>
      <use xlink:href="#ArialMT-70" transform="translate(277.929688 0)"/>
      <use xlink:href="#ArialMT-73" transform="translate(333.544922 0)"/>
      <use xlink:href="#ArialMT-69" transform="translate(383.544922 0)"/>
      <use xlink:href="#ArialMT-64" transform="translate(405.761719 0)"/>
      <use xlink:href="#ArialMT-65" transform="translate(461.376953 0)"/>
      <use xlink:href="#ArialMT-3a" transform="translate(516.992188 0)"/>
      <use xlink:href="#ArialMT-20" transform="translate(544.775391 0)"/>
      <use xlink:href="#ArialMT-31" transform="translate(572.558594 0)"/>
      <use xlink:href="#ArialMT-39" transform="translate(628.173828 0)"/>
      <use xlink:href="#ArialMT-2e" transform="translate(683.789062 0)"/>
      <use xlink:href="#ArialMT-32" transform="translate(711.572266 0)"/>
      <use xlink:href="#ArialMT-36" transform="translate(767.1875 0)"/>
      <use xlink:href="#ArialMT-25" transform="translate(822.802734 0)"/>
     </g>
    </g>
   </g>
  </g>
 </g>
 <defs>
  <clipPath id="p3bf65cb81d">
   <rect x="88.4" y="68.92" width="1042" height="721.44"/>
  </clipPath>
 </defs>
</svg>
